<mxfile host="65bd71144e">
    <diagram id="cQs2WxOSEHZRFCcIqhHi" name="Page-1">
        <mxGraphModel dx="1653" dy="467" grid="1" gridSize="10" guides="1" tooltips="1" connect="1" arrows="1" fold="1" page="1" pageScale="1" pageWidth="850" pageHeight="1100" math="0" shadow="0">
            <root>
                <mxCell id="0"/>
                <mxCell id="1" parent="0"/>
                <mxCell id="10" value="" style="edgeStyle=none;html=1;" parent="1" source="2" target="8" edge="1">
                    <mxGeometry relative="1" as="geometry"/>
                </mxCell>
                <mxCell id="2" value="works in" style="shape=ellipse;html=1;dashed=0;whiteSpace=wrap;perimeter=ellipsePerimeter;" parent="1" vertex="1">
                    <mxGeometry x="60" y="390" width="100" height="50" as="geometry"/>
                </mxCell>
                <mxCell id="3" value="Employee" style="swimlane;childLayout=stackLayout;horizontal=1;startSize=50;horizontalStack=0;rounded=1;fontSize=14;fontStyle=0;strokeWidth=2;resizeParent=0;resizeLast=1;shadow=0;dashed=0;align=center;arcSize=4;whiteSpace=wrap;html=1;" parent="1" vertex="1">
                    <mxGeometry x="-220" y="270" width="160" height="240" as="geometry"/>
                </mxCell>
                <mxCell id="4" value="&lt;div&gt;employee_id&lt;/div&gt;email&lt;div&gt;first_name&lt;/div&gt;&lt;div&gt;lastname&lt;/div&gt;&lt;div&gt;phonenumber&lt;/div&gt;&lt;div&gt;role&lt;/div&gt;&lt;div&gt;timestamp&lt;/div&gt;" style="align=left;strokeColor=none;fillColor=none;spacingLeft=4;fontSize=12;verticalAlign=top;resizable=0;rotatable=0;part=1;html=1;" parent="3" vertex="1">
                    <mxGeometry y="50" width="160" height="190" as="geometry"/>
                </mxCell>
                <mxCell id="6" style="edgeStyle=none;html=1;exitX=1;exitY=0.5;exitDx=0;exitDy=0;entryX=0;entryY=0.5;entryDx=0;entryDy=0;" parent="1" source="4" target="2" edge="1">
                    <mxGeometry relative="1" as="geometry"/>
                </mxCell>
                <mxCell id="7" value="Department" style="swimlane;childLayout=stackLayout;horizontal=1;startSize=50;horizontalStack=0;rounded=1;fontSize=14;fontStyle=0;strokeWidth=2;resizeParent=0;resizeLast=1;shadow=0;dashed=0;align=center;arcSize=4;whiteSpace=wrap;html=1;" parent="1" vertex="1">
                    <mxGeometry x="225" y="275" width="200" height="230" as="geometry"/>
                </mxCell>
                <mxCell id="8" value="department_id(primary key)&lt;div&gt;accounts_department&lt;/div&gt;&lt;div&gt;IT_department&lt;/div&gt;&lt;div&gt;admin_department&lt;/div&gt;&lt;div&gt;Security&lt;/div&gt;" style="align=left;strokeColor=none;fillColor=none;spacingLeft=4;fontSize=12;verticalAlign=top;resizable=0;rotatable=0;part=1;html=1;" parent="7" vertex="1">
                    <mxGeometry y="50" width="200" height="180" as="geometry"/>
                </mxCell>
                <mxCell id="11" value="Location" style="swimlane;childLayout=stackLayout;horizontal=1;startSize=50;horizontalStack=0;rounded=1;fontSize=14;fontStyle=0;strokeWidth=2;resizeParent=0;resizeLast=1;shadow=0;dashed=0;align=center;arcSize=4;whiteSpace=wrap;html=1;" vertex="1" parent="1">
                    <mxGeometry x="-670" y="282.5" width="160" height="215" as="geometry"/>
                </mxCell>
                <mxCell id="12" value="&lt;div&gt;location_id&lt;/div&gt;employee_id&lt;div&gt;latitude&lt;/div&gt;&lt;div&gt;longitude&lt;/div&gt;&lt;div&gt;timestamp&lt;/div&gt;" style="align=left;strokeColor=none;fillColor=none;spacingLeft=4;fontSize=12;verticalAlign=top;resizable=0;rotatable=0;part=1;html=1;" vertex="1" parent="11">
                    <mxGeometry y="50" width="160" height="165" as="geometry"/>
                </mxCell>
                <mxCell id="17" style="edgeStyle=none;html=1;exitX=1;exitY=0.5;exitDx=0;exitDy=0;" edge="1" parent="1" source="14" target="4">
                    <mxGeometry relative="1" as="geometry"/>
                </mxCell>
                <mxCell id="14" value="many to many" style="shape=ellipse;html=1;dashed=0;whiteSpace=wrap;perimeter=ellipsePerimeter;" vertex="1" parent="1">
                    <mxGeometry x="-425" y="390" width="100" height="50" as="geometry"/>
                </mxCell>
                <mxCell id="16" style="edgeStyle=none;html=1;exitX=1;exitY=0.5;exitDx=0;exitDy=0;entryX=0;entryY=0.5;entryDx=0;entryDy=0;" edge="1" parent="1" source="12" target="14">
                    <mxGeometry relative="1" as="geometry"/>
                </mxCell>
            </root>
        </mxGraphModel>
    </diagram>
</mxfile>